<?xml version="1.0" encoding="utf-8"?>
<!-- Generator: Adobe Illustrator 23.0.1, SVG Export Plug-In . SVG Version: 6.00 Build 0)  -->
<svg xmlns="http://www.w3.org/2000/svg" xmlns:xlink="http://www.w3.org/1999/xlink" version="1.1" id="Layer_1" x="0px" y="0px" viewBox="0 0 100 100" style="enable-background:new 0 0 100 100;" xml:space="preserve">
<title>mail woman</title>
<g>
	<g id="Warstwa_80">
		<g id="background_round-2">
			<g id="_grupa_">
				<circle style="fill:#FFFFFF;" cx="20.4" cy="56.5" r="0.9"/>
				<circle style="fill:#FFFFFF;" cx="79.4" cy="31.6" r="0.7"/>
				<circle style="fill:#F1BC19;" cx="76.8" cy="12.6" r="0.9"/>
				<circle style="fill:#F1BC19;" cx="20.9" cy="64.2" r="0.9"/>
				<circle style="fill:#CEE1F4;" cx="49.7" cy="49.8" r="37.5"/>
				<circle style="fill:#F1BC19;" cx="82.3" cy="14.7" r="4"/>
				<circle style="fill:#EE3E54;" cx="86.3" cy="23.8" r="1.9"/>
				<circle style="fill:#FBCD59;" cx="77.3" cy="76.2" r="1.9"/>
				<circle style="fill:#FBCD59;" cx="14.1" cy="63.3" r="4"/>
				<circle style="fill:#EE3E54;" cx="24.4" cy="87.4" r="1.9"/>
				<circle style="fill:#FFFFFF;" cx="18.1" cy="54.6" r="2.5"/>
				<path style="fill:#FDFCEF;" d="M48.5,25.2c-1.2-1.1-3-1.1-4.1,0L28.1,40.1v24.4c0,1.7,1.4,3,3.1,3h30.5c1.7,0,3-1.3,3.1-3V40.1      L48.5,25.2z"/>
				<g>
					<path style="fill:#EFEDDF;" d="M33.8,39.3H59c1.9,0,3.4,1.5,3.4,3.4v19.3c0,1.9-1.5,3.4-3.4,3.4H33.8c-1.9,0-3.4-1.5-3.4-3.4       V42.6C30.5,40.8,32,39.3,33.8,39.3z"/>
					<path style="fill:#472B29;" d="M59,65.7H33.8c-2.1,0-3.8-1.7-3.8-3.8V42.6c0-2.1,1.7-3.8,3.8-3.8H59c2.1,0,3.8,1.7,3.8,3.8       v19.3C62.8,64,61.1,65.7,59,65.7z M33.8,39.7c-1.6,0-3,1.3-3,3v19.3c0,1.6,1.3,3,3,3H59c1.6,0,3-1.3,3-3V42.6c0-1.6-1.3-3-3-3       H33.8z"/>
				</g>
				<path style="fill:#78A0CF;" d="M49.8,53.8l-1.3-1.1c-1.2-1.1-3-1.1-4.1,0l-1.3,1.2l-15-13.7v24.4c0,1.1,0.6,2.2,1.6,2.7l0,0      l0.3,0.1l0,0c0.1,0,0.2,0.1,0.3,0.1h0.1c0.1,0,0.1,0,0.2,0c0,0,0.1,0,0.1,0c0,0,0.1,0,0.1,0H62c0,0,0.1,0,0.1,0c0,0,0.1,0,0.2,0      c0.1,0,0.1,0,0.2,0s0.1,0,0.1,0s0.2,0,0.3-0.1l0,0l0.3-0.1l0,0c1-0.5,1.6-1.6,1.6-2.7V40.1L49.8,53.8z"/>
				<g>
					<path style="fill:#457FAF;" d="M28.7,66.9l14.8-13.4c0.7-0.9,1.8-1.4,2.9-1.5c1.6,0.1,3.1,1.9,3.1,1.9l14.4,13.3"/>
					<path style="fill:#472B29;" d="M63.6,67.4L49.3,54.2c0-0.1-1.5-1.7-2.9-1.8c-1,0.1-1.9,0.6-2.6,1.4L29,67.2l-0.6-0.6l14.8-13.4       c0.8-0.9,1.9-1.5,3.2-1.6c1.8,0.1,3.4,2,3.5,2.1l14.3,13.2L63.6,67.4z"/>
				</g>
				
					<rect x="35.2" y="36.8" transform="matrix(0.6755 -0.7374 0.7374 0.6755 -23.0859 41.5061)" style="fill:#472B29;" width="0.9" height="20.3"/>
				<path style="fill:#472B29;" d="M49.6,54.3c-0.1,0-0.2,0-0.3-0.1c-0.2-0.2-0.1-0.4,0-0.6l5.3-4.8c0.2-0.2,0.4-0.1,0.6,0      c0.2,0.2,0.1,0.4,0,0.6l-5.4,4.8C49.8,54.2,49.7,54.3,49.6,54.3z"/>
				<path style="fill:#472B29;" d="M54.9,49.5c-0.1,0-0.2,0-0.3-0.1c-0.2-0.2-0.1-0.4,0-0.6l9.7-8.9c0.2-0.2,0.4-0.1,0.6,0      c0.2,0.2,0.1,0.4,0,0.6l-9.7,8.9C55.1,49.4,55,49.5,54.9,49.5z"/>
				<path style="fill:#472B29;" d="M61.7,68.2H31.1c-0.6,0-1.1-0.1-1.6-0.4L29,67.6c-0.8-0.5-1.3-1.3-1.6-2.3l0-0.2      c0-0.2-0.1-0.4-0.1-0.6l0-24.7l16.4-15.1c1.4-1.4,3.7-1.4,5.1,0l16.5,15.1l0,24.8c0,0.2,0,0.4-0.1,0.6c0,0,0,0.1,0,0.1      c-0.2,1-0.8,1.8-1.6,2.3l-0.2,0.1l-0.2,0l-0.2,0.1C62.8,68.1,62.2,68.2,61.7,68.2z M29.7,66.4l0.4,0.2c0.3,0.2,0.7,0.2,1,0.2      h30.5c0.3,0,0.7-0.1,1-0.2l0.5-0.3c0.4-0.3,0.7-0.8,0.8-1.3l0-0.1l0,0c0-0.1,0.1-0.3,0.1-0.4V40.4L48,25.7      c-0.9-0.9-2.3-0.9-3.2,0l-16,14.7v24.1c0,0.1,0,0.3,0,0.4l0,0.2C29,65.6,29.3,66.1,29.7,66.4z"/>
				<path style="fill:#CBC9BC;" d="M56.4,42.9H35.7c-0.2,0-0.4-0.2-0.4-0.4s0.2-0.4,0.4-0.4h20.7c0.2,0,0.4,0.2,0.4,0.4      S56.6,42.9,56.4,42.9z"/>
				<path style="fill:#CBC9BC;" d="M54.2,46H37.8c-0.2,0-0.4-0.2-0.4-0.4s0.2-0.4,0.4-0.4h16.4c0.2,0,0.4,0.2,0.4,0.4      S54.4,46,54.2,46z"/>
				<path style="fill:#CBC9BC;" d="M51.1,49H41c-0.2,0-0.4-0.2-0.4-0.4s0.2-0.4,0.4-0.4h10.1c0.2,0,0.4,0.2,0.4,0.4S51.3,49,51.1,49      z"/>
				<path style="fill:#F6CCA4;" d="M70.4,38c0.1-1.2-0.2-2.2-0.2-2.8l0,0c-1-1.3-1.7-2.8-3.1-3.7c-1.6-1-3.4-1.7-5.2-2.2      c-4.4-1.1-8.7,2.1-10,6.2v0.1c0.1,0.7,0.2,1.5,0.2,2.3c-1.2,0-1.8,0.6-1.4,1.9c0,0,0.5,2,0.8,3c0.1,0.5,0.6,0.9,1.1,0.9      c0,0.7,0,1.3,0,1.9c0,0.8,0.2,1.5,0.7,2.2c1.2,1.7,7.1,5.5,8.5,5.4c2.3,0,6.9-4,8.1-5.9c0.2-0.4,0.3-0.9,0.3-1.4      c0-0.8,0-1.5,0-2.3c0.5-0.1,0.9-0.4,1-0.9c0.3-1,0.8-3,0.8-3C72.5,38.6,71.6,38,70.4,38z"/>
				<path style="fill:#EDBC94;" d="M74,57.6l-0.3-0.1l-0.4-0.2c-1-0.4-7.1-2.5-7.1-2.5c-0.4-0.1-0.8-0.4-0.9-0.8      C65,53.3,65,52.5,65,51.8c-1,0.5-2.1,0.8-3.2,1.1c-1.4,0.1-4-1.8-4-1.8s-0.1,2.3-0.2,2.8c-0.1,0.5-0.5,0.8-1,0.9l-6,2      C50,57,49.5,57.2,49,57.5c-3.3,2.3-2.6,10.5-2.6,10.8c5.5,4.3,11.5,4.3,19.6,4.3c3.6,0,8.3-2.3,11.2-3.9      C76.8,61.5,77.2,58.6,74,57.6z"/>
				<path style="fill:#FDFCEF;" d="M55,55.8c-0.2,6.8,13.3,7.2,12.4-0.5l3.8,1.3l1.2,14.7c0,0-12.3,3.3-21.9-0.7L51,57.1L55,55.8z"/>
				<g style="opacity:0.3;">
					<g style="opacity:0.8;">
						<ellipse style="fill:#F4989E;" cx="56" cy="44.6" rx="1.5" ry="1.5"/>
					</g>
					<g style="opacity:0.8;">
						<ellipse style="fill:#F4989E;" cx="67.6" cy="44.6" rx="1.5" ry="1.5"/>
					</g>
				</g>
				<path style="fill:#472B29;" d="M53,44.4C53,44.4,53,44.3,53,44.4c-0.1,0-0.2-0.1-0.2-0.2l0.4-3.2c0-0.1,0.1-0.2,0.2-0.2      c0.1,0,0.2,0.1,0.2,0.2l-0.4,3.2C53.2,44.3,53.1,44.4,53,44.4z"/>
				<path style="fill:#472B29;" d="M70.3,43.7c-0.1,0-0.2-0.1-0.2-0.2v-2.3c0-0.1,0.1-0.2,0.2-0.2s0.2,0.1,0.2,0.2v2.3      C70.5,43.6,70.4,43.7,70.3,43.7z"/>
				<path style="fill:#6D1B18;" d="M59.1,47.8c0,0.1,0,0.2,0,0.4c0,1.1,1.2,1.9,2.7,1.9s2.7-0.9,2.7-1.9c0-0.1,0-0.2,0-0.4H59.1z"/>
				<path style="fill:#EE3E54;" d="M63.1,49.8c-0.8-0.6-2-0.6-2.8,0c0.4,0.2,0.9,0.3,1.4,0.3C62.2,50.1,62.7,50,63.1,49.8z"/>
				<path style="fill:#FDFCEF;" d="M59.9,47.8v0.4c0,0.3,0.4,0.5,0.8,0.5h2c0.5,0,0.8-0.2,0.8-0.5v-0.3l0,0L59.9,47.8z"/>
				<path style="fill:#472B29;" d="M61.8,50.3c-1.6,0-2.9-1-2.9-2.1c0-0.1,0-0.3,0-0.4c0-0.1,0.1-0.2,0.2-0.2h5.3      c0.1,0,0.2,0.1,0.2,0.2c0,0.1,0,0.3,0,0.4C64.6,49.4,63.4,50.3,61.8,50.3z M59.3,48c0,0,0,0.1,0,0.1c0,1,1.1,1.8,2.5,1.8      c1.4,0,2.4-0.8,2.4-1.7c0-0.1,0-0.1,0-0.2H59.3z"/>
				<path style="opacity:0.41;fill:#472B29;enable-background:new    ;" d="M61.7,46.4c0.6,0,1.1-0.2,1.5-0.7c0,0,0-0.1,0-0.1      c0,0,0,0,0,0l0,0c0,0-0.1,0-0.1,0c-0.4,0.4-0.9,0.6-1.4,0.5c-0.5,0-1-0.2-1.4-0.5c0,0-0.1,0-0.1,0c-0.1,0-0.1,0.1-0.1,0.1      c0,0,0,0,0,0.1C60.6,46.1,61.1,46.4,61.7,46.4z"/>
				<path style="opacity:0.41;fill:#472B29;enable-background:new    ;" d="M62.4,51.5C62.4,51.5,62.5,51.5,62.4,51.5      c0.1-0.1,0-0.1,0-0.1H61c0,0-0.1,0-0.1,0.1c0,0,0,0.1,0.1,0.1H62.4z"/>
				<path style="fill:#512C2B;" d="M60.2,37.1c-1.8-0.5-3.8-0.7-5.7-0.6c-0.1,0-0.1,0.1-0.2,0.1c0,0.1,0.1,0.2,0.1,0.2c0,0,0,0,0,0      c0,0,3.9,0.7,5.1,1.1h0.1c0.1,0,0.1,0,0.2-0.1l0.5-0.5C60.3,37.3,60.3,37.2,60.2,37.1C60.3,37.2,60.2,37.1,60.2,37.1z"/>
				<path style="fill:#512C2B;" d="M63.3,37c1.9-0.4,3.8-0.5,5.7-0.3c0.1,0,0.2,0.1,0.2,0.1c0,0.1-0.1,0.2-0.1,0.2c0,0,0,0,0,0      c0,0-3.9,0.5-5.2,0.8h-0.1c-0.1,0-0.1,0-0.2-0.1l-0.5-0.5C63.1,37.2,63.1,37.1,63.3,37C63.2,37,63.2,37,63.3,37z"/>
				<path style="fill:#472B29;" d="M57.5,38.7c-0.4,0-0.8,0.3-0.9,0.6h0.2c0.3,0,0.6,0.3,0.6,0.6c0,0,0,0,0,0c0,0.3-0.2,0.6-0.6,0.6      c-0.1,0-0.2,0-0.3-0.1c0.1,0.5,0.5,1,1,1c0.8-0.2,1.3-0.9,1.1-1.7C58.4,39.3,58,38.9,57.5,38.7L57.5,38.7z"/>
				<path style="fill:#472B29;" d="M65.9,38.7c-0.3,0-0.7,0.2-0.8,0.5c0.1,0,0.1,0,0.2,0c0.3,0,0.6,0.3,0.6,0.6c0,0,0,0,0,0      c0,0.3-0.2,0.6-0.6,0.6c-0.2,0-0.4-0.1-0.5-0.3c-0.1,0.6,0.3,1.2,0.9,1.3c0.6,0.1,1.2-0.3,1.3-0.9c0-0.2,0-0.3,0-0.5      C67.1,39.5,66.6,38.8,65.9,38.7C65.9,38.7,65.9,38.7,65.9,38.7z"/>
				<path style="fill:#472B29;" d="M62,53.1c-1.5,0-4.1-1.6-4.2-1.7c-0.1-0.1-0.2-0.2-0.1-0.3c0.1-0.1,0.2-0.2,0.3-0.1      c0,0,2.8,1.7,4.1,1.6c1.1-0.2,2.2-0.6,3.2-1.2c0.1-0.1,0.3,0,0.3,0.1c0.1,0.1,0,0.3-0.1,0.3c-1.1,0.6-2.2,1.1-3.4,1.3      C62.1,53,62,53.1,62,53.1z"/>
				<path style="fill:#472B29;" d="M71.3,31.6c-0.3-1.5-2-4.2-3.7-4c-0.3-1.1-1-2-1.9-2.6c-1.4-0.9-3.1-1.3-4.8-1      c-2.6,0.4-5.8,1.3-7.5,3.5s-3.3,5.2-3.3,8.1c0.4-0.5,0.9-1.1,1.4-1.5c-0.1,2.6,0.5,5.2,1.8,7.4c0-1.7,0.2-3.4,0.7-5      c0,0.8,0.1,1.6,0.3,2.3c-0.1-0.2,3.5-5.7,7.4-7c-0.2,0.4-0.5,0.8-0.7,1.3s-0.8,3-1.1,3.2c2-0.8,3.7-2.2,5-4      c0.3-0.4,0.5-0.8,0.6-1.2h0.3l0.1,0.3c0.4,0.7,0.8,1.4,1.3,2c1.7,2.4,3.1,5.3,3,8.3C72.2,38.5,72.1,34.9,71.3,31.6z"/>
				<path style="fill:#472B29;" d="M62.3,73.2c-6.5,0-12.9-1.6-16.3-4.4c-0.1-0.1-0.2-0.3-0.2-0.4c0,0,0-0.2,0-0.3      c-0.2-6.1,0.9-9.8,3.1-10.9c0.5-0.3,1.1-0.5,1.8-0.7l5.9-2c0.4-0.1,0.6-0.3,0.7-0.6c0-0.3,0.2-1.4,0.2-2.1      c-1.6-1-3.1-2.1-4.4-3.5c-0.6-0.8-0.8-1.6-0.8-2.5v-1.5c-0.6-0.2-1-0.7-1.1-1.2c-0.3-1-0.7-2.9-0.8-3c-0.2-0.6-0.2-1.2,0.1-1.6      c0.1-0.2,0.3-0.4,0.7-0.6c-0.2-0.9-0.3-1.7-0.3-2.6c-0.2,0.2-0.3,0.4-0.5,0.6c-0.1,0.2-0.3,0.2-0.5,0.2      c-0.2-0.1-0.3-0.2-0.4-0.5c-0.2-3.6,2.4-7.1,3.5-8.4c2-2.5,5.9-3.4,8-3.6c1.8-0.3,3.6,0.1,5.2,1c0.9,0.6,1.6,1.5,2,2.5      c1.9,0.1,3.5,2.8,3.9,4.4c0.6,2.1,0.7,4.4,0.3,6.6c0.3,0.2,0.4,0.5,0.6,0.8c0.1,0.4,0.1,0.9-0.1,1.3c0,0.1,0,0.2-0.1,0.3      c-0.1,0.6-0.5,1.9-0.7,2.7c-0.1,0.5-0.5,0.9-1,1.1V46c0,0.6-0.2,1.1-0.4,1.5c-1.4,1.9-3,3.4-5,4.7c0,0.6,0,1.1,0.2,1.7      c0.1,0.2,0.3,0.4,0.6,0.5c0.3,0.1,6.2,2.1,7.2,2.5l0.7,0.3c3,0.9,3.1,3.4,3.2,8.2c0,1,0,2.1,0.1,3.4c0,0.2-0.1,0.3-0.2,0.4      C73.7,71.9,68,73.2,62.3,73.2z M46.8,68.1c6,4.8,22.4,5.7,29.7,0.3c0-1.2-0.1-2.2-0.1-3.1c-0.1-5.1-0.2-6.6-2.5-7.3c0,0,0,0,0,0      l-0.7-0.3c-0.9-0.4-7-2.5-7.1-2.5c-0.5-0.2-1-0.6-1.2-1.1c-0.2-0.8-0.3-1.5-0.2-2.3c0-0.2,0.1-0.3,0.2-0.4      c1.9-1.2,3.5-2.7,4.9-4.5c0.1-0.3,0.2-0.6,0.3-1l0-2.3c0-0.3,0.2-0.5,0.4-0.5c0.3,0,0.5-0.2,0.6-0.5c0.2-0.8,0.5-2,0.7-2.6      c0-0.2,0.1-0.4,0.1-0.5l0,0c0.1-0.2,0.1-0.4,0-0.5c-0.1-0.2-0.2-0.3-0.4-0.4c-0.2-0.1-0.3-0.3-0.3-0.6c0.4-2.1,0.4-4.4-0.2-6.5      c-0.3-1.4-1.9-3.8-3.2-3.6c-0.2,0-0.5-0.1-0.5-0.3c-0.3-1-0.9-1.8-1.7-2.3c-1.3-0.8-2.9-1.1-4.5-0.9c-2,0.3-5.5,1-7.4,3.3      c-1.7,2.1-2.8,4.3-3.1,6.2c0.1-0.1,0.3-0.3,0.4-0.4c0.1-0.1,0.4-0.2,0.6-0.1c0.2,0.1,0.3,0.3,0.3,0.5c-0.1,1.4,0.1,2.7,0.4,4      c0,0.1,0,0.3-0.1,0.4s-0.2,0.2-0.3,0.2c-0.2,0.1-0.4,0.2-0.5,0.3c-0.1,0.2-0.1,0.5,0,0.9c0,0.1,0.5,2,0.8,3      c0.1,0.3,0.4,0.6,0.7,0.6c0.3,0,0.5,0.2,0.5,0.5v1.9c0,0.7,0.2,1.3,0.6,1.9c1.2,1.3,2.7,2.5,4.4,3.5c0.2,0.1,0.3,0.3,0.3,0.4      c0,0.6-0.1,2.1-0.2,2.6c-0.2,0.7-0.7,1.2-1.4,1.3l-5.9,2c-0.6,0.2-1.1,0.4-1.6,0.7c-1.3,0.7-2.8,2.9-2.6,10      C46.8,68,46.8,68.1,46.8,68.1z"/>
			</g>
		</g>
	</g>
</g>
</svg>
