<?xml version="1.0" encoding="iso-8859-1"?>
<!-- Generator: Adobe Illustrator 22.1.0, SVG Export Plug-In . SVG Version: 6.00 Build 0)  -->
<svg xmlns="http://www.w3.org/2000/svg" xmlns:xlink="http://www.w3.org/1999/xlink" version="1.1" id="Layer_1" x="0px" y="0px" viewBox="0 0 100 100" style="enable-background:new 0 0 100 100;" xml:space="preserve">
<g>
	<g>
		<g>
			<circle style="fill:#EE3E54;" cx="13" cy="29" r="2"/>
		</g>
		<g>
			<circle style="fill:#F1BC19;" cx="77" cy="13" r="1"/>
		</g>
		<g>
			<circle style="fill:#FCE0A2;" cx="50" cy="50" r="37"/>
		</g>
		<g>
			<circle style="fill:#F1BC19;" cx="83" cy="15" r="4"/>
		</g>
		<g>
			<circle style="fill:#EE3E54;" cx="87" cy="24" r="2"/>
		</g>
		<g>
			<circle style="fill:#FBCD59;" cx="81" cy="76" r="2"/>
		</g>
		<g>
			<circle style="fill:#FBCD59;" cx="15" cy="63" r="4"/>
		</g>
		<g>
			<circle style="fill:#EE3E54;" cx="25" cy="87" r="2"/>
		</g>
		<g>
			<circle style="fill:#F1BC19;" cx="21" cy="67" r="1"/>
		</g>
		<g>
			<circle style="fill:#FFFFFF;" cx="80" cy="34" r="1"/>
		</g>
	</g>
</g>
<g>
	<g>
		<polygon style="fill:#F1BC19;" points="66.501,66.39 67.51,68.436 69.766,68.763 68.134,70.355 68.519,72.602 66.501,71.54     64.483,72.602 64.868,70.355 63.236,68.763 65.492,68.436   "/>
	</g>
	<g>
		<path style="fill:#472B29;" d="M68.52,72.999c-0.064,0-0.126-0.015-0.185-0.045l-1.833-0.964l-1.833,0.964    c-0.134,0.071-0.295,0.059-0.419-0.029c-0.121-0.088-0.183-0.239-0.158-0.389l0.351-2.042l-1.484-1.445    c-0.109-0.107-0.147-0.263-0.101-0.407s0.17-0.248,0.32-0.27l2.051-0.298l0.918-1.857c0.133-0.27,0.579-0.27,0.711,0l0.918,1.857    l2.05,0.298c0.15,0.023,0.273,0.126,0.32,0.27s0.008,0.302-0.101,0.407l-1.483,1.445l0.351,2.042    c0.025,0.15-0.035,0.301-0.158,0.389C68.683,72.973,68.601,72.999,68.52,72.999z M66.501,71.144c0.064,0,0.127,0.015,0.185,0.045    l1.306,0.686l-0.25-1.454c-0.023-0.129,0.02-0.26,0.115-0.353l1.056-1.03l-1.46-0.212c-0.128-0.019-0.24-0.101-0.298-0.217    l-0.653-1.323l-0.653,1.323c-0.058,0.117-0.169,0.199-0.298,0.217l-1.461,0.212l1.057,1.03c0.094,0.092,0.136,0.222,0.115,0.353    l-0.25,1.454l1.306-0.686C66.374,71.159,66.438,71.144,66.501,71.144z"/>
	</g>
</g>
<g>
	<g>
		<polygon style="fill:#F1BC19;" points="54.501,21.39 55.51,23.436 57.766,23.763 56.134,25.355 56.519,27.602 54.501,26.54     52.483,27.602 52.868,25.355 51.236,23.763 53.492,23.436   "/>
	</g>
	<g>
		<path style="fill:#472B29;" d="M56.52,27.999c-0.064,0-0.126-0.015-0.185-0.045l-1.833-0.964l-1.833,0.964    c-0.134,0.071-0.295,0.059-0.419-0.029c-0.121-0.088-0.183-0.239-0.158-0.389l0.351-2.042l-1.484-1.445    c-0.109-0.107-0.147-0.263-0.101-0.407c0.047-0.144,0.17-0.248,0.32-0.27l2.051-0.298l0.918-1.857c0.133-0.27,0.579-0.27,0.711,0    l0.918,1.857l2.05,0.298c0.15,0.023,0.273,0.126,0.32,0.27c0.047,0.144,0.008,0.302-0.101,0.407l-1.483,1.445l0.351,2.042    c0.025,0.15-0.035,0.301-0.158,0.389C56.683,27.973,56.601,27.999,56.52,27.999z M54.501,26.144c0.064,0,0.127,0.015,0.185,0.045    l1.306,0.686l-0.25-1.454c-0.023-0.129,0.02-0.26,0.115-0.353l1.056-1.03l-1.46-0.212c-0.128-0.019-0.24-0.101-0.298-0.217    l-0.653-1.323l-0.653,1.323c-0.058,0.117-0.169,0.199-0.298,0.217l-1.461,0.212l1.057,1.03c0.094,0.092,0.136,0.222,0.115,0.353    l-0.25,1.454l1.306-0.686C54.374,26.159,54.438,26.144,54.501,26.144z"/>
	</g>
</g>
<g>
	<g>
		<polygon style="fill:#F1BC19;" points="26.027,33.377 27.345,36.05 30.294,36.477 28.16,38.558 28.664,41.496 26.027,40.108     23.388,41.496 23.892,38.558 21.758,36.477 24.707,36.05   "/>
	</g>
	<g>
		<path style="fill:#472B29;" d="M28.664,41.892c-0.064,0-0.126-0.015-0.185-0.045l-2.454-1.289l-2.452,1.289    c-0.135,0.071-0.296,0.059-0.419-0.029c-0.121-0.088-0.183-0.239-0.158-0.389l0.468-2.73l-1.985-1.934    c-0.109-0.107-0.147-0.263-0.101-0.407c0.047-0.143,0.17-0.248,0.32-0.27l2.744-0.399l1.226-2.484c0.133-0.27,0.579-0.27,0.711,0    l1.227,2.484l2.743,0.399c0.15,0.023,0.273,0.126,0.32,0.27s0.008,0.302-0.101,0.407l-1.984,1.934l0.468,2.73    c0.025,0.15-0.035,0.301-0.158,0.389C28.828,41.866,28.747,41.892,28.664,41.892z M26.026,39.713c0.064,0,0.126,0.015,0.185,0.045    l1.926,1.012l-0.368-2.144c-0.023-0.129,0.02-0.26,0.115-0.353l1.557-1.519l-2.153-0.312c-0.128-0.019-0.24-0.101-0.298-0.217    l-0.964-1.951l-0.963,1.951c-0.058,0.117-0.169,0.199-0.298,0.217l-2.154,0.312l1.559,1.519c0.094,0.092,0.136,0.222,0.115,0.353    l-0.368,2.144l1.925-1.012C25.898,39.727,25.963,39.713,26.026,39.713z"/>
	</g>
</g>
<g>
	<g>
		<g>
			<path style="fill:#88CDD7;" d="M50.153,57.734c-0.12-0.166-0.306-0.271-0.51-0.288l-8.478-0.699l2.986-7.593     c0.077-0.195,0.062-0.414-0.041-0.598l-5.391-9.64l43.838,2.865L53.964,63.015L50.153,57.734z"/>
		</g>
		<g>
			<path style="fill:#472B29;" d="M39.959,39.699l40.651,2.657L54.117,62.03l-3.396-4.705c-0.24-0.332-0.612-0.542-1.02-0.576     l-7.539-0.622l2.641-6.716c0.154-0.39,0.124-0.829-0.081-1.196L39.959,39.699 M37.48,38.134l6.02,10.765l-3.331,8.468     l9.416,0.777L53.812,64l30.693-22.792L37.48,38.134L37.48,38.134z"/>
		</g>
	</g>
	<g>
		<polygon style="fill:#77CBD2;" points="41.336,56.873 47.302,53.12 82.738,41.75 44.52,48.407   "/>
	</g>
	<g>
		<path style="fill:#472B29;" d="M40.966,57.329c-0.197-0.16-0.268-0.426-0.179-0.662L43.97,48.2    c0.073-0.196,0.244-0.337,0.449-0.373l38.218-6.657c0.309-0.054,0.6,0.139,0.673,0.439c0.073,0.301-0.099,0.606-0.392,0.7    L47.551,53.656l-5.902,3.716c-0.128,0.08-0.278,0.107-0.42,0.08C41.134,57.434,41.042,57.393,40.966,57.329z M44.951,48.928    l-2.45,6.517l4.486-2.824c0.043-0.026,0.087-0.046,0.135-0.061l27.333-8.77L44.951,48.928z"/>
	</g>
	<g>
		<path style="fill:#472B29;" d="M41.229,57.452c0.14,0.026,0.289,0.001,0.42-0.08l5.902-3.716l35.366-11.346    c0.294-0.094,0.465-0.399,0.392-0.699c-0.072-0.299-0.361-0.494-0.669-0.442l-38.635,6.463c-0.321,0.053-0.537,0.357-0.483,0.678    c0.052,0.321,0.353,0.538,0.678,0.483l30.63-5.125l-27.71,8.891c-0.047,0.015-0.092,0.036-0.135,0.061l-5.965,3.754    c-0.275,0.174-0.358,0.537-0.184,0.812C40.929,57.332,41.073,57.423,41.229,57.452z"/>
	</g>
	<g>
		<path style="fill:#472B29;" d="M50.202,58.563c0.139,0.026,0.287,0.001,0.417-0.079c0.276-0.171,0.361-0.533,0.19-0.81    l-3.008-4.866c-0.173-0.275-0.534-0.361-0.81-0.19s-0.361,0.533-0.19,0.81l3.008,4.866C49.901,58.44,50.045,58.534,50.202,58.563z    "/>
	</g>
	<g>
		<path style="fill:#472B29;" d="M54.216,46.984c-0.567,1.521-1.132,3.044-1.699,4.565c-0.132,0.354-0.66,0.096-0.529-0.257    c0.567-1.521,1.132-3.044,1.699-4.565C53.819,46.374,54.348,46.632,54.216,46.984L54.216,46.984z"/>
	</g>
	<g>
		<path style="fill:#472B29;" d="M57.313,46.34c-0.484,1.416-0.967,2.83-1.45,4.246c-0.122,0.357-0.651,0.098-0.529-0.257    c0.484-1.416,0.967-2.83,1.45-4.246C56.905,45.727,57.434,45.986,57.313,46.34L57.313,46.34z"/>
	</g>
	<g>
		<path style="fill:#472B29;" d="M60.688,45.728c-0.497,1.263-0.995,2.525-1.492,3.789c-0.139,0.351-0.668,0.094-0.529-0.257    c0.497-1.263,0.995-2.525,1.492-3.789C60.297,45.12,60.826,45.378,60.688,45.728L60.688,45.728z"/>
	</g>
	<g>
		<path style="fill:#472B29;" d="M64.251,45.125c-0.428,1.034-0.823,2.081-1.251,3.114c-0.145,0.35-0.674,0.092-0.529-0.257    c0.428-1.034,0.823-2.081,1.251-3.114C63.866,44.519,64.396,44.776,64.251,45.125L64.251,45.125z"/>
	</g>
	<g>
		<path style="fill:#472B29;" d="M67.551,44.57c-0.336,0.814-0.671,1.627-1.007,2.44c-0.145,0.35-0.674,0.092-0.529-0.257    c0.336-0.814,0.671-1.627,1.007-2.44C67.166,43.962,67.695,44.219,67.551,44.57L67.551,44.57z"/>
	</g>
	<g>
		<path style="fill:#472B29;" d="M71.36,43.953c-0.214,0.601-0.426,1.201-0.64,1.802c-0.127,0.356-0.656,0.097-0.529-0.257    c0.214-0.601,0.426-1.201,0.64-1.802C70.956,43.34,71.485,43.599,71.36,43.953L71.36,43.953z"/>
	</g>
	<g>
		<path style="fill:#472B29;" d="M51.02,47.436c-0.611,1.599-1.221,3.199-1.832,4.798c-0.135,0.353-0.664,0.095-0.529-0.257    c0.611-1.599,1.221-3.199,1.832-4.798C50.625,46.826,51.154,47.083,51.02,47.436L51.02,47.436z"/>
	</g>
	<g>
		<path style="fill:#472B29;" d="M47.635,47.901c-0.797,2.143-1.594,4.284-2.392,6.427c-0.132,0.354-0.66,0.096-0.529-0.257    c0.797-2.143,1.594-4.284,2.392-6.427C47.237,47.29,47.766,47.548,47.635,47.901L47.635,47.901z"/>
	</g>
</g>
<g>
	<g>
		<path style="fill:#472B29;" d="M21.539,61.775c-0.121,0-0.241-0.043-0.337-0.131c-0.204-0.186-0.219-0.502-0.033-0.706    c2.229-2.444,4.931-2.653,7.276-2.535c0.276,0.014,0.488,0.248,0.475,0.524c-0.014,0.274-0.262,0.51-0.524,0.474    c-3.041-0.147-4.917,0.488-6.487,2.211C21.81,61.721,21.675,61.775,21.539,61.775z"/>
	</g>
	<g>
		<path style="fill:#472B29;" d="M31.052,59.597c-0.336,0-0.669-0.019-0.997-0.055c-0.274-0.03-0.472-0.277-0.442-0.552    s0.272-0.46,0.552-0.442c0.882,0.098,1.812,0.046,2.759-0.151c0.269-0.06,0.535,0.116,0.592,0.387s-0.117,0.535-0.387,0.592    C32.427,59.522,31.732,59.597,31.052,59.597z"/>
	</g>
	<g>
		<path style="fill:#472B29;" d="M34.927,58.811c-0.199,0-0.387-0.119-0.465-0.315c-0.102-0.257,0.024-0.548,0.281-0.649    c1.295-0.513,2.135-1.109,2.143-1.115c0.225-0.16,0.537-0.109,0.698,0.115c0.161,0.224,0.11,0.536-0.114,0.697    c-0.038,0.026-0.941,0.671-2.358,1.232C35.051,58.8,34.989,58.811,34.927,58.811z"/>
	</g>
	<g>
		<path style="fill:#472B29;" d="M23.073,65.457c-0.123,0-0.246-0.045-0.342-0.136c-0.201-0.188-0.211-0.505-0.022-0.707    c2.273-2.421,5.195-2.259,8.015-2.102c2.692,0.145,5.237,0.288,7.359-1.61c0.206-0.185,0.522-0.168,0.706,0.038    c0.184,0.206,0.167,0.522-0.039,0.706c-2.431,2.177-5.305,2.018-8.081,1.864c-2.713-0.148-5.277-0.291-7.231,1.789    C23.339,65.404,23.207,65.457,23.073,65.457z"/>
	</g>
	<g>
		<path style="fill:#472B29;" d="M20.279,57.074c-0.123,0-0.246-0.045-0.342-0.136c-0.201-0.188-0.211-0.505-0.022-0.707    c2.273-2.419,5.192-2.257,8.015-2.102c2.695,0.149,5.237,0.29,7.359-1.609c0.205-0.185,0.522-0.166,0.706,0.038    c0.184,0.206,0.167,0.522-0.039,0.706c-2.431,2.176-5.304,2.015-8.082,1.864c-2.709-0.149-5.275-0.292-7.231,1.788    C20.545,57.021,20.413,57.074,20.279,57.074z"/>
	</g>
</g>
</svg>
